<?xml version="1.0" encoding="utf-8"?>
<!-- Generator: Adobe Illustrator 22.0.1, SVG Export Plug-In . SVG Version: 6.00 Build 0)  -->
<svg version="1.1" id="圖層_1" xmlns="http://www.w3.org/2000/svg" xmlns:xlink="http://www.w3.org/1999/xlink" x="0px" y="0px"
	 viewBox="0 0 300 71" style="enable-background:new 0 0 300 71;" xml:space="preserve">
<style type="text/css">
	.st0{fill:#D90049;}
	.st1{fill:#231815;}
</style>
<title>logo copy</title>
<desc>Created with Sketch.</desc>
<g>
	<path class="st0" d="M17.8,21.5c0-1.2-1-2.2-2.3-2.2c-1.3,0-2.3,1-2.3,2.2v9.3c-1.2-0.6-2.6-1-4-1c-4.7,0-8.6,3.8-8.6,8.6
		c0,4.7,3.8,8.6,8.6,8.6c4.7,0,8.6-3.8,8.6-8.6c0-0.1,0-0.2,0-0.3c0,0,0-0.1,0-0.1V21.5z M9.3,42.7c-2.4,0-4.3-1.9-4.3-4.3
		c0-2.4,1.9-4.3,4.3-4.3c2.4,0,4.3,1.9,4.3,4.3C13.5,40.8,11.6,42.7,9.3,42.7"/>
	<path class="st0" d="M26.2,45.2c0,1.1-1,2-2.1,2c-1.2,0-2.1-0.9-2.1-2V31.6c0-1.1,0.9-2,2.1-2c1.2,0,2.1,0.9,2.1,2V45.2z"/>
	<path class="st0" d="M57.1,36.8c-0.3-3.9-3.6-6.9-7.5-6.9c-2.2,0-4.2,0.9-5.6,2.4c-1.4-1.5-3.4-2.4-5.6-2.4c-1.3,0-2.6,0.3-3.6,0.9
		c-0.3-0.7-1-1.2-1.9-1.2c-1.1,0-2.1,0.9-2.1,2v13.7c0,1.1,0.9,2,2.1,2c1.1,0,2.1-0.9,2.1-2v-8c0.1-1.8,1.6-3.3,3.5-3.3
		c1.9,0,3.5,1.5,3.5,3.4h0v7.9c0,1.1,0.9,2,2.1,2c1.1,0,2.1-0.9,2.1-2v-8c0.1-1.8,1.6-3.3,3.5-3.3c1.9,0,3.5,1.5,3.5,3.4v7.9
		c0,1.1,0.9,2,2.1,2c1.1,0,2.1-0.9,2.1-2v-8C57.2,37.2,57.2,37,57.1,36.8"/>
	<path class="st0" d="M68.2,29.7c-4.1,0-7.5,3-7.6,6.8v3.8c0,3.8,3.4,6.8,7.6,6.8c0,0,0.1,0,0.1,0h4.6c1.1,0,2-0.8,2-1.9
		c0-1-0.9-1.9-2-1.9h-4.7h0c-1.8-0.1-3.3-1.4-3.4-3.1h3.6h5.5c1.1,0,2-0.8,2-1.9v-1.9C75.7,32.7,72.4,29.7,68.2,29.7 M64.7,36.5
		c0-1.7,1.6-3.1,3.5-3.1c1.9,0,3.4,1.4,3.5,3.1H64.7z"/>
	<path class="st0" d="M24.7,22.4h-1.2c-0.8,0-1.5,0.7-1.5,1.5v0.6v0.6v1.5h1.5h0.6h0.6c0.8,0,1.5-0.7,1.5-1.5v-1.2
		C26.2,23.1,25.6,22.4,24.7,22.4"/>
	<g>
		<path class="st1" d="M104,40h4.1l-3,7H103l-5-11l-4.9,11h-2.2L80.4,22.5h4.2L92,40L98,26.7L104,40L104,40L104,40z M109.8,36.1
			h-4.2l5.8-13.6h4.2L109.8,36.1z"/>
	</g>
	<g>
		<path class="st1" d="M130,22.5c1.7,0,3.3,0.3,4.8,1c1.5,0.6,2.8,1.5,3.9,2.6c1.1,1.1,2,2.4,2.6,3.9c0.6,1.5,1,3.1,1,4.8
			c0,1.7-0.3,3.3-1,4.8c-0.6,1.5-1.5,2.8-2.6,3.9c-1.1,1.1-2.4,2-3.9,2.6c-1.5,0.6-3.1,1-4.8,1c-1.7,0-3.3-0.3-4.8-1
			c-1.5-0.6-2.8-1.5-3.9-2.6c-1.1-1.1-2-2.4-2.6-3.9c-0.6-1.5-1-3.1-1-4.8c0-1.7,0.3-3.3,1-4.8c0.6-1.5,1.5-2.8,2.6-3.9
			c1.1-1.1,2.4-2,3.9-2.6C126.7,22.8,128.3,22.5,130,22.5z M130,43.5c1.2,0,2.3-0.2,3.4-0.7c1.1-0.4,2-1.1,2.8-1.9
			c0.8-0.8,1.4-1.7,1.9-2.8c0.5-1.1,0.7-2.2,0.7-3.4c0-1.2-0.2-2.3-0.7-3.4c-0.4-1.1-1.1-2-1.9-2.8c-0.8-0.8-1.7-1.4-2.8-1.9
			c-1.1-0.4-2.2-0.7-3.4-0.7c-1.2,0-2.3,0.2-3.4,0.7c-1.1,0.4-2,1.1-2.8,1.9c-0.8,0.8-1.4,1.7-1.9,2.8c-0.5,1.1-0.7,2.2-0.7,3.4
			c0,1.2,0.2,2.3,0.7,3.4c0.4,1.1,1.1,2,1.9,2.8c0.8,0.8,1.7,1.4,2.8,1.9C127.7,43.2,128.8,43.5,130,43.5z"/>
	</g>
	<g>
		<path class="st1" d="M163.3,47l-6.4-9.3h-4v9.4H149V22.5l11.3,0c1.1,0,2,0.2,3,0.6c0.9,0.4,1.7,1,2.4,1.6c0.7,0.7,1.2,1.5,1.6,2.4
			c0.4,0.9,0.6,1.9,0.6,3c0,1-0.2,1.9-0.5,2.7c-0.3,0.8-0.8,1.6-1.4,2.3c-0.6,0.7-1.3,1.2-2.1,1.7c-0.8,0.4-1.6,0.7-2.6,0.9l6.5,9.3
			H163.3z M160.4,34c0.5,0,1-0.1,1.5-0.3c0.4-0.2,0.8-0.5,1.2-0.8c0.3-0.3,0.6-0.7,0.8-1.2c0.2-0.4,0.3-0.9,0.3-1.5
			c0-0.5-0.1-1-0.3-1.5c-0.2-0.5-0.5-0.9-0.8-1.2c-0.3-0.3-0.7-0.6-1.2-0.8c-0.4-0.2-0.9-0.3-1.5-0.3h-7.5V34L160.4,34z"/>
	</g>
	<g>
		<path class="st1" d="M191.2,43.2v3.8h-16.9V22.6h3.8v20.7H191.2z"/>
	</g>
	<g>
		<path class="st1" d="M196.9,47V22.6h7.7c1.7,0,3.3,0.3,4.8,1c1.5,0.6,2.8,1.5,3.9,2.6c1.1,1.1,2,2.4,2.6,3.9c0.6,1.5,1,3.1,1,4.7
			c0,1.7-0.3,3.3-1,4.7c-0.6,1.5-1.5,2.8-2.6,3.9c-1.1,1.1-2.4,2-3.9,2.6c-1.5,0.6-3.1,1-4.8,1H196.9z M200.7,43.2l3.8,0
			c1.2,0,2.3-0.2,3.3-0.7c1-0.4,1.9-1,2.7-1.8c0.8-0.8,1.4-1.7,1.8-2.7c0.4-1,0.7-2.1,0.7-3.3c0-1.2-0.2-2.3-0.7-3.3
			c-0.4-1-1-1.9-1.8-2.7c-0.8-0.8-1.7-1.4-2.7-1.8c-1-0.4-2.1-0.7-3.3-0.7h-3.8V43.2z"/>
	</g>
</g>
</svg>
